HIERARCHY
ROOT Hips
{
	OFFSET 52.394299 -6.044664 86.803101
	CHANNELS 6 Xposition Yposition Zposition Xrotation Yrotation Zrotation
	JOINT spine
	{
		OFFSET 0.000000 -0.393701 6.846367
		CHANNELS 3 Xrotation Yrotation Zrotation
		JOINT spine1
		{
			OFFSET 0.000000 -0.000001 9.496208
			CHANNELS 3 Xrotation Yrotation Zrotation
			JOINT spine2
			{
				OFFSET 0.000000 -0.000001 9.099091
				CHANNELS 3 Xrotation Yrotation Zrotation
				JOINT Neck
				{
					OFFSET 0.000000 -1.113784 23.361206
					CHANNELS 3 Xrotation Yrotation Zrotation
					JOINT Head
					{
						OFFSET 0.000000 -0.000001 7.058014
						CHANNELS 3 Xrotation Yrotation Zrotation
						End Site
						{
							OFFSET 0.000000 5.634188 17.084396
						}
					}
				}
				JOINT RightShoulder
				{
					OFFSET -3.831360 0.533489 9.826309
					CHANNELS 3 Xrotation Yrotation Zrotation
					JOINT RightArm
					{
						OFFSET 0.000000 -0.000002 12.888092
						CHANNELS 3 Xrotation Yrotation Zrotation
						JOINT RightArmRoll
						{
							OFFSET 0.000000 -0.000001 6.506165
							CHANNELS 3 Xrotation Yrotation Zrotation
							JOINT RightForeArm
							{
								OFFSET 0.000000 -0.000003 18.950104
								CHANNELS 3 Xrotation Yrotation Zrotation
								JOINT RightForeArmRoll
								{
									OFFSET 0.000000 -0.000001 7.300919
									CHANNELS 3 Xrotation Yrotation Zrotation
									JOINT RightHand
									{
										OFFSET 0.000000 -0.000002 14.651398
										CHANNELS 3 Xrotation Yrotation Zrotation
										End Site
										{
											OFFSET 0.000000 0.000000 0.100006
										}
									}
								}
							}
						}
					}
				}
				JOINT LeftShoulder
				{
					OFFSET 3.831360 0.533489 9.826309
					CHANNELS 3 Xrotation Yrotation Zrotation
					JOINT LeftArm
					{
						OFFSET 0.000000 -0.000002 12.888092
						CHANNELS 3 Xrotation Yrotation Zrotation
						JOINT LeftArmRoll
						{
							OFFSET 0.000000 -0.000001 6.506165
							CHANNELS 3 Xrotation Yrotation Zrotation
							JOINT LeftForeArm
							{
								OFFSET 0.000000 -0.000003 18.950104
								CHANNELS 3 Xrotation Yrotation Zrotation
								JOINT LeftForeArmRoll
								{
									OFFSET 0.000000 -0.000001 7.300919
									CHANNELS 3 Xrotation Yrotation Zrotation
									JOINT LeftHand
									{
										OFFSET 0.000000 -0.000002 14.651398
										CHANNELS 3 Xrotation Yrotation Zrotation
										End Site
										{
											OFFSET 0.000000 0.000000 0.100006
										}
									}
								}
							}
						}
					}
				}
			}
		}
	}
	JOINT RightUpLeg
	{
		OFFSET -6.068371 0.933477 -1.112778
		CHANNELS 3 Xrotation Yrotation Zrotation
		JOINT RightUpLegRoll
		{
			OFFSET 0.000000 -0.000003 17.179596
			CHANNELS 3 Xrotation Yrotation Zrotation
			JOINT RightLeg
			{
				OFFSET 0.000000 0.000003 -21.274300
				CHANNELS 3 Xrotation Yrotation Zrotation
				JOINT RightLegRoll
				{
					OFFSET 0.000000 -0.000003 21.343903
					CHANNELS 3 Xrotation Yrotation Zrotation
					JOINT RightFoot
					{
						OFFSET 0.000000 -0.000003 17.765198
						CHANNELS 3 Xrotation Yrotation Zrotation
						JOINT RightToeBase
						{
							OFFSET 0.000000 -0.000002 14.850792
							CHANNELS 3 Xrotation Yrotation Zrotation
							End Site
							{
								OFFSET 0.006294 0.829003 7.192123
							}
						}
					}
				}
			}
		}
	}
	JOINT LeftUpLeg
	{
		OFFSET 6.068371 0.933477 -1.112778
		CHANNELS 3 Xrotation Yrotation Zrotation
		JOINT LeftUpLegRoll
		{
			OFFSET 0.000000 -0.000003 17.179703
			CHANNELS 3 Xrotation Yrotation Zrotation
			JOINT LeftLeg
			{
				OFFSET 0.000000 -0.000003 21.274200
				CHANNELS 3 Xrotation Yrotation Zrotation
				JOINT LeftLegRoll
				{
					OFFSET 0.000000 -0.000004 21.541199
					CHANNELS 3 Xrotation Yrotation Zrotation
					JOINT LeftFoot
					{
						OFFSET 0.000000 -0.000003 17.567902
						CHANNELS 3 Xrotation Yrotation Zrotation
						JOINT LeftToeBase
						{
							OFFSET 0.000000 -0.000002 14.850800
							CHANNELS 3 Xrotation Yrotation Zrotation
							End Site
							{
								OFFSET -0.028210 0.829004 7.192123
							}
						}
					}
				}
			}
		}
	}
}
MOTION
Frames: 13
Frame Time: 0.041667
56.231106 -7.375336 86.645195 1.261746 -2.988219 49.093784 -0.176589 -3.040585 1.897034 3.756185 -6.065273 3.831886 5.403538 -6.018985 3.904392 -13.199692 47.350047 17.925345 15.422741 -26.868424 8.799894 4.995021 -11.716483 16.404002 108.548433 12.080437 105.053193 0.000019 0.000003 -0.000004 21.535470 -16.009977 1.049616 0.000017 0.000003 -2.999978 -4.999571 -7.999092 -0.000344 -123.955284 74.888885 131.765236 11.018792 64.947859 7.333148 -0.000001 -0.000003 0.000005 72.005582 8.679192 -6.144313 -0.000004 -0.000010 3.000001 -5.000430 8.000448 -0.000108 -6.064356 -171.775638 5.083420 -179.999991 0.000005 -0.968992 153.168167 -5.636159 -1.692026 0.000004 0.000004 0.469497 81.701589 6.673434 1.727966 27.037174 -7.355645 0.189633 -14.802514 187.159928 6.777485 -0.000003 -0.000003 -1.546396 -22.632008 0.291825 0.647017 -0.000001 0.000004 -1.206513 74.090812 -7.300842 -0.517925 25.456957 7.355624 -0.000004 
56.203800 -7.382504 86.645294 1.263716 -2.950703 49.114869 -0.176719 -3.028518 1.895665 3.755384 -6.041159 3.828077 5.402713 -5.994926 3.900299 -13.149267 47.349624 17.913187 15.430313 -26.869249 8.813064 4.988498 -11.715598 16.394189 108.570966 12.033663 104.985479 0.000019 0.000003 0.000000 21.559834 -16.049298 1.067098 0.000017 0.000003 -2.999981 -4.999569 -7.999086 -0.000343 -124.057668 74.876816 131.868659 10.963187 64.914364 7.380723 -0.000001 -0.000002 0.000005 72.012310 8.684250 -6.147431 -0.000005 -0.000011 3.000000 -5.000435 8.000442 -0.000111 -6.089354 -171.817807 5.060941 -179.999991 0.000005 -0.970004 153.186745 -5.645130 -1.692249 0.000002 0.000004 0.469758 81.695203 6.679593 1.705189 27.034548 -7.355645 0.189628 -14.847783 187.132307 6.776642 -0.000004 -0.000004 -1.543518 -22.641681 0.279129 0.647163 -0.000001 0.000004 -1.207412 74.076093 -7.295574 -0.535342 25.456957 7.355622 -0.000003 
56.194405 -7.387992 86.647697 1.265523 -2.912050 49.135903 -0.177244 -3.016635 1.894213 3.753792 -6.017439 3.824029 5.401091 -5.971255 3.895974 -13.098055 47.346441 17.900193 15.438722 -26.868016 8.826391 4.981815 -11.716009 16.383662 108.594004 11.986790 104.916733 0.000019 0.000003 -0.000003 21.583818 -16.089033 1.084740 0.000016 0.000002 -2.999982 -4.999570 -7.999090 -0.000341 -124.154029 74.865403 131.966003 10.910439 64.882153 7.427258 -0.000001 -0.000000 0.000002 72.019980 8.688461 -6.150059 -0.000002 -0.000007 3.000002 -5.000435 8.000447 -0.000107 -6.113925 -171.859936 5.037428 -179.999991 0.000005 -0.972000 153.207318 -5.654203 -1.692253 0.000003 0.000002 0.470073 81.689097 6.685938 1.681810 27.030410 -7.355635 0.189968 -14.894122 187.103702 6.775412 -0.000005 -0.000005 -1.540582 -22.651754 0.266434 0.647309 -0.000001 0.000004 -1.208309 74.061162 -7.290326 -0.552776 25.456957 7.355629 -0.000007 
56.187904 -7.391253 86.651001 1.267078 -2.872637 49.156909 -0.178088 -3.004936 1.892741 3.751570 -5.994113 3.819844 5.398840 -5.947979 3.891504 -13.046153 47.341117 17.886326 15.448034 -26.865122 8.839761 4.974992 -11.717727 16.372508 108.617479 11.939766 104.848000 0.000019 0.000005 -0.000006 21.607471 -16.129157 1.102582 0.000017 0.000002 -2.999985 -4.999572 -7.999089 -0.000343 -124.245840 74.854516 132.058743 10.860780 64.851021 7.472777 0.000001 -0.000003 0.000003 72.028395 8.691872 -6.152272 -0.000008 -0.000009 3.000000 -5.000437 8.000446 -0.000109 -6.137287 -171.905029 5.013597 -179.999991 0.000005 -0.973991 153.230294 -5.663399 -1.692028 0.000003 0.000003 0.470439 81.683373 6.692437 1.657818 27.024543 -7.355625 0.190484 -14.940936 187.074114 6.773896 -0.000003 -0.000004 -1.537589 -22.661932 0.253749 0.647469 -0.000001 0.000004 -1.209208 74.046122 -7.285072 -0.570212 25.456957 7.355620 -0.000005 
56.168407 -7.393377 86.650391 1.268261 -2.832874 49.177693 -0.179167 -2.993445 1.891256 3.748889 -5.971189 3.815599 5.396131 -5.925103 3.886976 -12.993723 47.334526 17.871721 15.457889 -26.861280 8.852910 4.968056 -11.720531 16.360728 108.641385 11.892592 104.779255 0.000019 0.000003 -0.000005 21.630777 -16.169793 1.120660 0.000014 0.000002 -2.999979 -4.999571 -7.999090 -0.000341 -124.334018 74.843983 132.147809 10.814320 64.820654 7.517497 0.000001 -0.000003 -0.000000 72.037274 8.694617 -6.154329 -0.000004 -0.000011 2.999999 -5.000434 8.000447 -0.000111 -6.158772 -171.950108 4.989545 -179.999991 0.000005 -0.976005 153.256331 -5.671855 -1.691050 0.000002 0.000003 0.470865 81.678025 6.699091 1.633322 27.016970 -7.355619 0.191082 -14.987742 187.044566 6.771981 -0.000005 -0.000005 -1.534568 -22.672109 0.241093 0.647631 -0.000001 0.000003 -1.210094 74.031027 -7.279902 -0.587464 25.456955 7.355622 -0.000003 
56.159599 -7.399599 86.651894 1.268978 -2.793146 49.197948 -0.180394 -2.982155 1.889776 3.745910 -5.948678 3.811394 5.393129 -5.902652 3.882503 -12.940856 47.327269 17.856350 15.468471 -26.856973 8.865779 4.961037 -11.724344 16.348519 108.665619 11.845205 104.708542 0.000019 0.000005 -0.000005 21.653735 -16.210817 1.138931 0.000017 0.000003 -2.999984 -4.999571 -7.999090 -0.000344 -124.419955 74.833820 132.234580 10.771302 64.790737 7.561528 0.000001 0.000000 0.000003 72.046427 8.696742 -6.156205 -0.000003 -0.000007 3.000001 -5.000437 8.000451 -0.000109 -6.177599 -171.997127 4.965868 -179.999991 0.000005 -0.977995 153.285892 -5.680475 -1.690691 0.000001 0.000003 0.471352 81.673230 6.705798 1.608491 27.007567 -7.355603 0.191618 -15.033914 187.014036 6.770018 -0.000004 -0.000005 -1.531540 -22.682186 0.228475 0.647798 -0.000001 0.000004 -1.210982 74.016124 -7.274695 -0.604698 25.456957 7.355617 -0.000003 
56.142906 -7.405213 86.653297 1.269126 -2.753856 49.217687 -0.181695 -2.971075 1.888347 3.742794 -5.926584 3.807303 5.389996 -5.880608 3.878160 -12.887647 47.320012 17.840210 15.479505 -26.852699 8.878114 4.953952 -11.729052 16.335968 108.689934 11.797449 104.637897 0.000019 0.000003 -0.000004 21.676346 -16.252351 1.157453 0.000017 0.000003 -2.999976 -4.999572 -7.999086 -0.000343 -124.504622 74.823705 132.320094 10.731808 64.760855 7.604933 0.000000 -0.000001 0.000003 72.055579 8.698406 -6.158253 -0.000007 -0.000011 3.000003 -5.000432 8.000448 -0.000109 -6.193065 -172.044105 4.942759 -179.999991 0.000005 -0.980004 153.319360 -5.689304 -1.689955 0.000002 0.000003 0.471901 81.669030 6.712587 1.583233 26.996253 -7.355600 0.191979 -15.079077 186.983573 6.767862 -0.000004 -0.000004 -1.528506 -22.691871 0.215909 0.647971 -0.000001 0.000003 -1.211832 74.001377 -7.269535 -0.621725 25.456952 7.355619 -0.000005 
56.120705 -7.414653 86.655296 1.268585 -2.715397 49.236614 -0.182984 -2.960205 1.887003 3.739721 -5.904921 3.803436 5.386893 -5.858993 3.874013 -12.834197 47.313468 17.823336 15.490860 -26.849084 8.889739 4.946826 -11.734554 16.323075 108.714598 11.749051 104.565326 0.000019 0.000003 -0.000003 21.698640 -16.294451 1.176233 0.000017 0.000002 -2.999983 -4.999570 -7.999091 -0.000343 -124.589207 74.813555 132.405512 10.696063 64.730796 7.648023 -0.000001 -0.000001 0.000005 72.064554 8.699661 -6.160554 -0.000005 -0.000006 3.000004 -5.000433 8.000448 -0.000104 -6.204434 -172.091998 4.920727 -179.999991 0.000005 -0.982002 153.357445 -5.698350 -1.688750 0.000002 0.000003 0.472518 81.665423 6.719478 1.557552 26.982920 -7.355597 0.192024 -15.122423 186.953165 6.765644 -0.000006 -0.000005 -1.525513 -22.701145 0.203414 0.648138 -0.000001 0.000004 -1.212652 73.986870 -7.264412 -0.638743 25.456955 7.355619 -0.000003 
56.103607 -7.415699 86.653198 1.267263 -2.678156 49.254526 -0.184185 -2.949554 1.885752 3.736844 -5.883694 3.799869 5.383994 -5.837799 3.870194 -12.780661 47.308510 17.805787 15.502610 -26.846697 8.900583 4.939702 -11.740654 16.309930 108.739241 11.700238 104.491868 0.000019 0.000003 -0.000007 21.720688 -16.337053 1.195306 0.000015 0.000002 -2.999981 -4.999570 -7.999090 -0.000345 -124.675090 74.803228 132.492255 10.664215 64.700155 7.690806 -0.000001 0.000000 0.000003 72.072955 8.700659 -6.163254 -0.000004 -0.000012 3.000003 -5.000436 8.000446 -0.000108 -6.210981 -172.140821 4.900134 -179.999991 0.000005 -0.985004 153.400503 -5.706765 -1.687597 0.000002 0.000001 0.473209 81.662500 6.726429 1.531531 26.967458 -7.355597 0.191630 -15.163689 186.923795 6.763171 -0.000004 -0.000005 -1.522540 -22.709932 0.190995 0.648318 -0.000001 0.000004 -1.213443 73.972807 -7.259293 -0.655530 25.456953 7.355616 -0.000003 
56.060402 -7.395559 86.642593 1.265043 -2.642541 49.271328 -0.185210 -2.939136 1.884632 3.734330 -5.862904 3.796690 5.381463 -5.817056 3.866771 -12.727069 47.305627 17.787503 15.514594 -26.845951 8.910406 4.932604 -11.747456 16.296647 108.763782 11.650955 104.416503 0.000019 0.000003 -0.000007 21.742521 -16.380237 1.214690 0.000017 0.000003 -2.999981 -4.999570 -7.999087 -0.000343 -124.763118 74.792682 132.581143 10.636519 64.668798 7.733249 0.000001 -0.000002 0.000003 72.080708 8.701468 -6.166625 -0.000003 -0.000009 3.000002 -5.000429 8.000448 -0.000112 -6.211991 -172.188564 4.881177 -179.999991 0.000005 -0.987996 153.449011 -5.716345 -1.686332 0.000003 0.000002 0.473966 81.660273 6.733430 1.505475 26.949881 -7.355588 0.190690 -15.202203 186.893578 6.761108 -0.000006 -0.000004 -1.519631 -22.717814 0.178673 0.648501 -0.000000 0.000004 -1.214182 73.959139 -7.254273 -0.672001 25.456953 7.355621 -0.000003 
56.050304 -7.407198 86.646301 1.261838 -2.608939 49.286850 -0.185981 -2.928945 1.883685 3.732345 -5.842569 3.793988 5.379459 -5.796754 3.863822 -12.673557 47.305631 17.768525 15.526676 -26.847529 8.919074 4.925543 -11.754751 16.283221 108.788391 11.600859 104.340292 0.000019 0.000003 -0.000006 21.764008 -16.423902 1.234319 0.000015 0.000002 -2.999981 -4.999568 -7.999087 -0.000340 -124.854273 74.781610 132.673187 10.613072 64.636232 7.775704 -0.000002 -0.000000 0.000004 72.087504 8.702146 -6.170551 -0.000002 -0.000007 3.000001 -5.000432 8.000450 -0.000106 -6.206706 -172.237222 4.864435 -179.999991 0.000005 -0.992002 153.503502 -5.725315 -1.684006 0.000002 0.000002 0.474798 81.658853 6.740464 1.479075 26.929868 -7.355606 0.189035 -15.237459 186.865397 6.758751 -0.000005 -0.000004 -1.516787 -22.725001 0.166457 0.648686 -0.000001 0.000004 -1.214873 73.946148 -7.249278 -0.688235 25.456950 7.355619 -0.000004 
56.039104 -7.408215 86.649902 1.257533 -2.577762 49.300965 -0.186417 -2.918986 1.882925 3.731067 -5.822689 3.791858 5.378153 -5.776910 3.861451 -12.620206 47.309193 17.748846 15.538819 -26.851944 8.926407 4.918556 -11.762346 16.269825 108.812816 11.549832 104.261287 0.000018 0.000003 -0.000006 21.785291 -16.468238 1.254332 0.000015 0.000002 -2.999980 -4.999569 -7.999091 -0.000339 -124.949650 74.769924 132.769493 10.594029 64.602115 7.818278 -0.000001 -0.000000 0.000006 72.093091 8.702863 -6.175574 -0.000004 -0.000006 3.000003 -5.000435 8.000449 -0.000109 -6.194415 -172.285757 4.850201 -179.999991 0.000005 -0.995003 153.564632 -5.734612 -1.682006 0.000001 0.000002 0.475711 81.658313 6.747487 1.452520 26.907436 -7.355614 0.186566 -15.268855 186.836355 6.757011 -0.000006 -0.000005 -1.514038 -22.730987 0.154361 0.648871 -0.000000 0.000004 -1.215514 73.933745 -7.244388 -0.704244 25.456957 7.355620 -0.000004 
56.018509 -7.409784 86.648598 1.252088 -2.547981 49.314072 -0.186698 -2.909335 1.882259 3.730065 -5.803386 3.790073 5.377125 -5.757623 3.859428 -12.567061 47.315306 17.728251 15.551586 -26.858343 8.932453 4.911581 -11.770836 16.256108 108.837118 11.498326 104.181388 0.000018 0.000002 -0.000004 21.805562 -16.513534 1.274703 0.000017 0.000003 -2.999981 -4.999567 -7.999090 -0.000341 -125.047431 74.757944 132.868230 10.578164 64.567178 7.863328 -0.000002 -0.000004 0.000004 72.098650 8.702796 -6.180913 -0.000008 -0.000012 2.999998 -5.000433 8.000447 -0.000109 -6.174030 -172.335180 4.838227 -179.999991 0.000005 -0.999005 153.634737 -5.745266 -1.679529 0.000001 0.000003 0.476784 81.659180 6.754786 1.425004 26.881161 -7.355632 0.183292 -15.297566 186.808420 6.754904 -0.000005 -0.000004 -1.511319 -22.736373 0.142260 0.649061 -0.000001 0.000004 -1.216091 73.921785 -7.239483 -0.720118 25.456957 7.355617 -0.000003 
